<?xml version="1.0" standalone="no"?>
<!DOCTYPE svg PUBLIC "-//W3C//DTD SVG 20010904//EN"
 "http://www.w3.org/TR/2001/REC-SVG-20010904/DTD/svg10.dtd">
<svg version="1.0" xmlns="http://www.w3.org/2000/svg"
 width="461.000000pt" height="461.000000pt" viewBox="0 0 461.000000 461.000000"
 preserveAspectRatio="xMidYMid meet">
<metadata>
Created by potrace 1.14, written by Peter Selinger 2001-2017
</metadata>
<g transform="translate(0.000000,461.000000) scale(0.100000,-0.100000)"
fill="#000000" stroke="none">
<path d="M2290 3967 c0 -3 -9 -49 -21 -103 -11 -55 -22 -112 -25 -129 -3 -16
-7 -39 -9 -50 -2 -11 -4 -20 -5 -20 -2 0 -10 -36 -15 -68 -3 -16 -8 -34 -12
-40 -4 -6 -8 -18 -9 -27 -17 -129 -58 -231 -85 -214 -5 3 -9 1 -9 -3 0 -5 -8
-9 -17 -9 -10 0 -40 -4 -68 -8 -27 -5 -61 -9 -75 -11 -77 -10 -244 -54 -273
-72 -7 -4 -17 -8 -22 -9 -14 -2 -102 -41 -137 -59 -14 -8 -33 -15 -42 -15 -9
0 -16 -3 -16 -8 0 -4 -24 -18 -52 -31 -29 -13 -55 -27 -58 -30 -3 -3 -30 -19
-60 -35 -83 -44 -128 -77 -201 -147 -104 -100 -201 -256 -225 -361 -2 -10 -7
-28 -11 -40 -9 -33 -12 -250 -3 -268 17 -33 32 -164 21 -185 -6 -11 -8 -22
-16 -85 -9 -70 -3 -183 12 -220 3 -8 7 -22 9 -30 9 -51 17 -75 34 -108 11 -20
20 -42 20 -47 0 -13 78 -131 117 -177 35 -42 155 -160 175 -173 8 -5 40 -26
69 -46 30 -19 74 -46 99 -60 25 -13 48 -28 51 -32 3 -5 8 -8 10 -7 2 1 22 -5
44 -15 80 -34 194 -73 200 -67 3 3 5 -1 5 -8 0 -7 3 -11 6 -7 3 3 27 0 52 -8
108 -29 232 -54 302 -61 41 -3 84 -7 95 -8 11 -1 25 -4 30 -7 14 -7 228 -3
300 6 92 10 110 13 110 14 0 1 20 4 45 7 91 9 254 45 288 63 12 6 22 9 22 5 0
-3 7 -1 15 6 8 7 15 10 15 7 0 -5 25 5 147 59 17 8 36 14 42 14 6 0 11 5 11
10 0 6 5 10 11 10 23 0 238 141 247 162 2 5 7 8 12 8 13 0 109 97 155 155 22
28 43 51 47 53 5 2 8 10 8 17 0 7 3 15 8 17 10 4 82 152 82 170 0 8 5 19 12
26 7 7 9 12 6 12 -3 0 -2 17 3 38 10 41 12 193 4 232 -20 90 -26 180 -12 180
6 0 8 3 5 6 -4 3 -2 20 3 37 32 109 29 266 -7 374 -21 66 -67 163 -76 163 -4
0 -8 5 -8 11 0 27 -122 159 -210 230 -54 43 -216 143 -248 153 -12 4 -22 12
-22 17 0 6 -4 7 -10 4 -5 -3 -10 -1 -10 6 0 7 -3 9 -6 6 -4 -4 -19 0 -33 7
-26 14 -69 34 -126 57 -17 7 -34 11 -39 10 -4 -1 -13 2 -20 7 -6 6 -27 13 -46
17 -19 4 -57 14 -83 22 -26 9 -51 13 -54 9 -3 -3 -11 -2 -17 3 -6 5 -33 11
-61 15 -106 13 -118 16 -148 33 -42 25 -147 229 -147 286 0 9 -4 17 -8 17 -5
0 -9 6 -10 13 -3 44 -43 262 -53 294 -9 27 -29 55 -29 40z"/>
</g>
</svg>
